<svg xmlns="http://www.w3.org/2000/svg" width="1000" height="550" viewBox="0 0 1000 550">
<rect width="100%" height="100%" fill="#ffffff"/>
<text x="40" y="42" font-size="28" font-family="Arial, sans-serif" font-weight="bold">Assignment 2 Automated Checks by Risk Module</text>
<text x="40" y="114" font-size="18" font-family="Arial, sans-serif">Authentication &amp; session boundary</text>
<rect x="260" y="90" width="660" height="36" fill="#eef2ff" rx="6"/>
<rect x="260" y="90" width="415" height="36" fill="#4C78A8" rx="6"/>
<text x="685" y="114" font-size="18" font-family="Arial, sans-serif">17</text>
<text x="40" y="202" font-size="18" font-family="Arial, sans-serif">Reader account &amp; reservations</text>
<rect x="260" y="178" width="660" height="36" fill="#eef2ff" rx="6"/>
<rect x="260" y="178" width="660" height="36" fill="#4C78A8" rx="6"/>
<text x="930" y="202" font-size="18" font-family="Arial, sans-serif">27</text>
<text x="40" y="290" font-size="18" font-family="Arial, sans-serif">Catalog discovery &amp; detail</text>
<rect x="260" y="266" width="660" height="36" fill="#eef2ff" rx="6"/>
<rect x="260" y="266" width="342" height="36" fill="#4C78A8" rx="6"/>
<text x="612" y="290" font-size="18" font-family="Arial, sans-serif">14</text>
<text x="40" y="378" font-size="18" font-family="Arial, sans-serif">Internal staff access &amp; operations</text>
<rect x="260" y="354" width="660" height="36" fill="#eef2ff" rx="6"/>
<rect x="260" y="354" width="366" height="36" fill="#4C78A8" rx="6"/>
<text x="636" y="378" font-size="18" font-family="Arial, sans-serif">15</text>
<text x="40" y="466" font-size="18" font-family="Arial, sans-serif">Public shell &amp; browser smoke</text>
<rect x="260" y="442" width="660" height="36" fill="#eef2ff" rx="6"/>
<rect x="260" y="442" width="171" height="36" fill="#4C78A8" rx="6"/>
<text x="441" y="466" font-size="18" font-family="Arial, sans-serif">7</text>
</svg>