<svg width="1600" height="1100" viewBox="0 0 1600 1100" fill="none" xmlns="http://www.w3.org/2000/svg">
  <rect width="1600" height="1100" fill="#1C3344"/>
  <rect x="0" y="0" width="1600" height="1100" fill="url(#bgGlow)"/>
  <rect x="0" y="0" width="1600" height="1100" fill="url(#warmWash)" opacity="0.72"/>
  <g opacity="0.5">
    <path d="M120 1000V326C120 266.353 168.353 218 228 218H1372C1431.65 218 1480 266.353 1480 326V1000" stroke="#D7E4EA" stroke-opacity="0.12" stroke-width="16"/>
    <path d="M240 1000V350C240 311.34 271.34 280 310 280H1290C1328.66 280 1360 311.34 1360 350V1000" stroke="#D7E4EA" stroke-opacity="0.08" stroke-width="10"/>
    <path d="M430 1000V414C430 344.412 486.412 288 556 288H1044C1113.59 288 1170 344.412 1170 414V1000" stroke="#E5EEF2" stroke-opacity="0.12" stroke-width="12"/>
    <path d="M800 310C902.173 310 985 392.827 985 495V1000H615V495C615 392.827 697.827 310 800 310Z" fill="url(#centralArch)"/>
    <path d="M300 446H470" stroke="#E5EEF2" stroke-opacity="0.09" stroke-width="8" stroke-linecap="round"/>
    <path d="M1130 446H1300" stroke="#E5EEF2" stroke-opacity="0.09" stroke-width="8" stroke-linecap="round"/>
    <path d="M350 530H490" stroke="#E5EEF2" stroke-opacity="0.06" stroke-width="8" stroke-linecap="round"/>
    <path d="M1110 530H1250" stroke="#E5EEF2" stroke-opacity="0.06" stroke-width="8" stroke-linecap="round"/>
  </g>
  <g opacity="0.34">
    <rect x="188" y="470" width="110" height="530" rx="6" fill="#D7E4EA" fill-opacity="0.06"/>
    <rect x="308" y="414" width="110" height="586" rx="6" fill="#D7E4EA" fill-opacity="0.08"/>
    <rect x="1182" y="470" width="110" height="530" rx="6" fill="#D7E4EA" fill-opacity="0.06"/>
    <rect x="1062" y="414" width="110" height="586" rx="6" fill="#D7E4EA" fill-opacity="0.08"/>
  </g>
  <g opacity="0.18">
    <rect x="228" y="520" width="28" height="412" fill="#F4EFE6"/>
    <rect x="262" y="550" width="18" height="382" fill="#BFCED6"/>
    <rect x="322" y="470" width="24" height="462" fill="#C6D6C8"/>
    <rect x="352" y="510" width="34" height="422" fill="#D3C0A1"/>
    <rect x="1112" y="520" width="28" height="412" fill="#F4EFE6"/>
    <rect x="1148" y="550" width="18" height="382" fill="#BFCED6"/>
    <rect x="1200" y="470" width="24" height="462" fill="#C6D6C8"/>
    <rect x="1232" y="510" width="34" height="422" fill="#D3C0A1"/>
  </g>
  <rect x="510" y="760" width="580" height="180" fill="url(#deskFade)" fill-opacity="0.34"/>
  <ellipse cx="800" cy="930" rx="360" ry="42" fill="#05101E" fill-opacity="0.14"/>
  <defs>
    <radialGradient id="bgGlow" cx="0" cy="0" r="1" gradientUnits="userSpaceOnUse" gradientTransform="translate(816 270) rotate(90) scale(750 980)">
      <stop stop-color="#5E7F92"/>
      <stop offset="0.45" stop-color="#38566A"/>
      <stop offset="1" stop-color="#21384B"/>
    </radialGradient>
    <linearGradient id="warmWash" x1="204" y1="188" x2="1408" y2="918" gradientUnits="userSpaceOnUse">
      <stop stop-color="#E7DED0" stop-opacity="0.24"/>
      <stop offset="0.48" stop-color="#EDF2F2" stop-opacity="0.08"/>
      <stop offset="1" stop-color="#153246" stop-opacity="0.04"/>
    </radialGradient>
    <linearGradient id="centralArch" x1="800" y1="310" x2="800" y2="1000" gradientUnits="userSpaceOnUse">
      <stop stop-color="#D6E0E2" stop-opacity="0.06"/>
      <stop offset="0.4" stop-color="#92A9AE" stop-opacity="0.08"/>
      <stop offset="1" stop-color="#294255" stop-opacity="0.18"/>
    </linearGradient>
    <linearGradient id="deskFade" x1="800" y1="760" x2="800" y2="940" gradientUnits="userSpaceOnUse">
      <stop stop-color="#F2F5F4" stop-opacity="0.12"/>
      <stop offset="1" stop-color="#1C3344" stop-opacity="0"/>
    </linearGradient>
  </defs>
</svg>