<svg xmlns="http://www.w3.org/2000/svg" width="960" height="520" viewBox="0 0 960 520">
<rect width="100%" height="100%" fill="#ffffff"/>
<text x="32" y="40" font-family="Arial, Helvetica, sans-serif" font-size="26" font-weight="700" fill="#111827">Critical-path coverage by module</text>
<text x="32" y="66" font-family="Arial, Helvetica, sans-serif" font-size="14" fill="#4b5563">Verification bundle 20260411-010532 — counts derived from real repo tests</text>
<line x1="220" y1="450" x2="920" y2="450" stroke="#d1d5db" stroke-width="1"/>
<line x1="220.0" y1="90" x2="220.0" y2="450" stroke="#f3f4f6" stroke-width="1"/>
<text x="220.0" y="472" text-anchor="middle" font-family="Arial, Helvetica, sans-serif" font-size="12" fill="#6b7280">0</text>
<line x1="360.0" y1="90" x2="360.0" y2="450" stroke="#f3f4f6" stroke-width="1"/>
<text x="360.0" y="472" text-anchor="middle" font-family="Arial, Helvetica, sans-serif" font-size="12" fill="#6b7280">8</text>
<line x1="500.0" y1="90" x2="500.0" y2="450" stroke="#f3f4f6" stroke-width="1"/>
<text x="500.0" y="472" text-anchor="middle" font-family="Arial, Helvetica, sans-serif" font-size="12" fill="#6b7280">16</text>
<line x1="640.0" y1="90" x2="640.0" y2="450" stroke="#f3f4f6" stroke-width="1"/>
<text x="640.0" y="472" text-anchor="middle" font-family="Arial, Helvetica, sans-serif" font-size="12" fill="#6b7280">24</text>
<line x1="780.0" y1="90" x2="780.0" y2="450" stroke="#f3f4f6" stroke-width="1"/>
<text x="780.0" y="472" text-anchor="middle" font-family="Arial, Helvetica, sans-serif" font-size="12" fill="#6b7280">32</text>
<line x1="920.0" y1="90" x2="920.0" y2="450" stroke="#f3f4f6" stroke-width="1"/>
<text x="920.0" y="472" text-anchor="middle" font-family="Arial, Helvetica, sans-serif" font-size="12" fill="#6b7280">40</text>
<text x="208" y="118.0" text-anchor="end" font-family="Arial, Helvetica, sans-serif" font-size="13" fill="#111827">Authentication &amp; session boundary</text>
<rect x="220" y="90" width="350.0" height="48" rx="6" fill="#0f766e" opacity="0.9"/>
<text x="578.0" y="118.0" font-family="Arial, Helvetica, sans-serif" font-size="13" fill="#111827">20</text>
<text x="208" y="180.0" text-anchor="end" font-family="Arial, Helvetica, sans-serif" font-size="13" fill="#111827">Reader account &amp; reservations</text>
<rect x="220" y="152" width="472.5" height="48" rx="6" fill="#0f766e" opacity="0.9"/>
<text x="700.5" y="180.0" font-family="Arial, Helvetica, sans-serif" font-size="13" fill="#111827">27</text>
<text x="208" y="242.0" text-anchor="end" font-family="Arial, Helvetica, sans-serif" font-size="13" fill="#111827">Catalog discovery &amp; detail</text>
<rect x="220" y="214" width="245.0" height="48" rx="6" fill="#0f766e" opacity="0.9"/>
<text x="473.0" y="242.0" font-family="Arial, Helvetica, sans-serif" font-size="13" fill="#111827">14</text>
<text x="208" y="304.0" text-anchor="end" font-family="Arial, Helvetica, sans-serif" font-size="13" fill="#111827">Internal staff access &amp; operations</text>
<rect x="220" y="276" width="297.5" height="48" rx="6" fill="#0f766e" opacity="0.9"/>
<text x="525.5" y="304.0" font-family="Arial, Helvetica, sans-serif" font-size="13" fill="#111827">17</text>
<text x="208" y="366.0" text-anchor="end" font-family="Arial, Helvetica, sans-serif" font-size="13" fill="#111827">Integration boundary &amp; idempotency</text>
<rect x="220" y="338" width="700.0" height="48" rx="6" fill="#0f766e" opacity="0.9"/>
<text x="928.0" y="366.0" font-family="Arial, Helvetica, sans-serif" font-size="13" fill="#111827">40</text>
<text x="208" y="428.0" text-anchor="end" font-family="Arial, Helvetica, sans-serif" font-size="13" fill="#111827">Public shell &amp; browser smoke</text>
<rect x="220" y="400" width="175.0" height="48" rx="6" fill="#0f766e" opacity="0.9"/>
<text x="403.0" y="428.0" font-family="Arial, Helvetica, sans-serif" font-size="13" fill="#111827">10</text>
</svg>